<svg width="152" height="105" viewBox="0 0 152 105" fill="none" xmlns="http://www.w3.org/2000/svg">
<path d="M16.7995 0H135.2C146.37 0 152 5.1625 152 15.6625V89.3375C152 99.75 146.37 105 135.2 105H16.7995C5.62963 105 0 99.75 0 89.3375V15.6625C0 5.1625 5.62963 0 16.7995 0ZM75.9553 75.25L136.183 26.8625C138.328 25.1125 140.026 21.0875 137.345 17.5C134.754 13.9125 130.018 13.825 126.89 16.0125L75.9553 49.7875L25.1099 16.0125C21.9824 13.825 17.2463 13.9125 14.6549 17.5C11.9741 21.0875 13.672 25.1125 15.8166 26.8625L75.9553 75.25Z" fill="#629FD1"/>
</svg>
