<svg width="123" height="123" viewBox="0 0 123 123" fill="none" xmlns="http://www.w3.org/2000/svg">
<path d="M99.3453 47.3092H89.8834C89.8796 43.5462 88.3831 39.9384 85.7222 37.2776C83.0614 34.6167 79.4536 33.1202 75.6906 33.1165V23.6546C81.9619 23.6622 87.9742 26.1567 92.4087 30.5912C96.8432 35.0257 99.3377 41.038 99.3453 47.3092Z" fill="#629FD1"/>
<path d="M118.269 47.3092H108.807C108.797 38.5293 105.305 30.1118 99.0965 23.9034C92.8881 17.6951 84.4705 14.2028 75.6906 14.1928V4.73096C86.9792 4.74348 97.802 9.23342 105.784 17.2157C113.767 25.1979 118.257 36.0206 118.269 47.3092Z" fill="#629FD1"/>
<path d="M81.9969 87.4369L92.5942 76.8396C94.0127 75.4208 95.8164 74.4494 97.7817 74.0457C99.747 73.6421 101.787 73.8239 103.65 74.5688L116.556 79.735C118.459 80.4961 120.089 81.8097 121.238 83.5063C122.386 85.2029 123 87.2048 123 89.2536V112.724C123.003 114.119 122.722 115.5 122.173 116.782C121.624 118.064 120.819 119.221 119.808 120.182C118.796 121.143 117.599 121.887 116.29 122.369C114.981 122.851 113.587 123.06 112.194 122.985C21.7294 117.355 3.45852 40.7333 0.0664327 11.3921C-0.0978559 9.95766 0.0434061 8.5047 0.480929 7.12877C0.918451 5.75284 1.64232 4.48514 2.60492 3.40903C3.56752 2.33293 4.74704 1.47281 6.0659 0.885247C7.38476 0.297688 8.81307 -0.00399494 10.2569 3.99452e-05H33.3108C35.3596 -2.58431e-05 37.3614 0.613789 39.0581 1.76231C40.7547 2.91082 42.0683 4.54135 42.8294 6.44355L47.9909 19.3495C48.7357 21.2124 48.9176 23.2529 48.514 25.2182C48.1103 27.1835 47.1389 28.9872 45.72 30.4057L35.1227 41.0029C35.1227 41.0029 40.9985 82.3133 81.9969 87.4369Z" fill="#629FD1"/>
</svg>
