<svg width="138" height="138" viewBox="0 0 138 138" fill="none" xmlns="http://www.w3.org/2000/svg">
<g clip-path="url(#clip0_839:74)">
<path d="M36.4749 118.192L38.7308 119.307C48.1321 124.882 58.6605 127.483 69.1895 127.483C102.28 127.483 129.354 100.723 129.354 68.0161C129.354 52.4061 122.961 37.1675 111.681 26.0172C100.4 14.8669 85.3581 8.54871 69.1895 8.54871C36.0991 8.54871 9.0247 35.309 9.40097 68.388C9.40097 79.5377 12.7852 90.3166 18.4254 99.6079L19.9294 101.838L13.9135 123.767L36.4749 118.192Z" fill="#00E676"/>
<path d="M118.072 20.0702C105.288 7.06198 87.6144 0 69.5649 0C31.2106 0 0.376266 30.8486 0.751992 68.3873C0.751992 80.2808 4.13623 91.8031 9.77698 102.21L0 137.518L36.4746 128.227C46.6273 133.802 57.9077 136.404 69.1892 136.404C107.168 136.404 138.002 105.555 138.002 68.0164C138.002 49.8042 130.857 32.7071 118.073 20.0702H118.072ZM69.5649 124.882C59.4122 124.882 49.2595 122.281 40.6108 117.077L38.3548 115.962L16.5454 121.537L22.1857 100.352L20.6817 98.1217C4.13623 71.7334 12.033 36.7954 39.1068 20.4416C66.1807 4.08832 101.151 11.8936 117.697 38.6539C134.242 65.4141 126.345 99.9797 99.2716 116.333C90.6223 121.908 80.0939 124.881 69.5649 124.881V124.882ZM102.655 83.6269L98.5191 81.7685C98.5191 81.7685 92.5031 79.1667 88.7426 77.3083C88.3664 77.3083 87.9906 76.9363 87.6144 76.9363C86.4861 76.9363 85.7341 77.3083 84.9821 77.6802C84.9821 77.6802 84.6064 78.0515 79.3419 83.9983C78.9656 84.7416 78.2137 85.1135 77.4617 85.1135H77.0854C76.7097 85.1135 75.9577 84.7416 75.5814 84.3702L73.7012 83.6269C69.5649 81.7685 65.805 79.5381 62.7965 76.565C62.0445 75.8217 60.9162 75.0784 60.1642 74.3351C57.532 71.7334 54.8997 68.7597 53.02 65.4147L52.6438 64.6714C52.268 64.2995 52.268 63.9281 51.8918 63.1848C51.8918 62.4415 51.8918 61.6983 52.268 61.3264C52.268 61.3264 53.772 59.4679 54.8997 58.3532C55.6523 57.6094 56.028 56.4948 56.78 55.7515C57.532 54.6363 57.9082 53.1497 57.532 52.0345C57.1563 50.1761 52.6438 40.141 51.516 37.9111C50.7635 36.7959 50.0121 36.4245 48.8838 36.0526H44.7476C43.995 36.0526 43.2436 36.4245 42.4911 36.4245L42.1148 36.7959C41.3628 37.1678 40.6108 37.9111 39.8588 38.2825C39.1068 39.0263 38.7306 39.7691 37.9786 40.5129C35.3463 43.8579 33.8423 47.9462 33.8423 52.0345C33.8423 55.0077 34.5943 57.9813 35.7226 60.5831L36.0989 61.6983C39.4831 68.7597 43.995 75.0784 50.0121 80.6533L51.516 82.1398C52.6438 83.255 53.772 83.9983 54.524 85.113C62.4207 91.8036 71.4452 96.6352 81.5979 99.2369C82.7261 99.6083 84.2301 99.6083 85.3584 99.9802H89.1184C90.9986 99.9802 93.2546 99.2369 94.7591 98.4937C95.8868 97.7504 96.6388 97.7504 97.3908 97.0071L98.1433 96.2633C98.8953 95.52 99.6473 95.1486 100.399 94.4053C101.151 93.6621 101.903 92.9188 102.28 92.175C103.032 90.6884 103.407 88.8299 103.784 86.972V84.3702C103.784 84.3702 103.407 83.9983 102.655 83.6269V83.6269Z" fill="white"/>
</g>
<defs>
<clipPath id="clip0_839:74">
<rect width="138" height="138" fill="white"/>
</clipPath>
</defs>
</svg>
