<svg width="180" height="180" viewBox="0 0 180 180" fill="none" xmlns="http://www.w3.org/2000/svg">
<g clip-path="url(#clip0_896:1897)">
<path d="M178.493 104.651C174.851 98.3721 166.772 96.1535 160.493 99.7116C159.405 100.298 144.795 107.456 132.781 112.521C131.442 113.107 130.814 114.614 131.4 115.995C131.902 117.377 133.493 118.005 134.749 117.419C147.391 112.102 162.795 104.526 162.921 104.442C162.921 104.442 163.005 104.442 163.047 104.442C166.814 102.223 171.67 103.521 173.93 107.288C176.442 111.642 172.465 116.498 170.581 118.423C157.437 128.972 121.186 156.098 109.047 156.098C95.5256 156.098 57.6419 148.019 48.3488 146.051V102.935C66.7674 100.256 76.4791 103.646 96.907 110.721C103.06 112.898 110.093 115.326 118.674 118.088C119.93 118.633 123.447 120.6 122.107 125.121C121.27 127.842 118.633 130.437 114.781 129.726C109.591 128.763 79.0326 124.619 77.7349 124.451C76.2698 124.242 74.9721 125.288 74.8047 126.712C74.5535 128.135 75.5581 129.474 77.0233 129.642C77.4419 129.726 108.837 133.953 113.86 134.916C114.614 135.084 115.409 135.126 116.121 135.126C121.73 135.126 125.833 131.107 127.214 126.628C128.553 121.898 127.088 115.912 120.642 113.233C120.558 113.149 120.516 113.149 120.474 113.149C120.391 113.149 120.349 113.149 120.307 113.149C111.809 110.386 104.819 107.916 98.5395 105.74C78.2372 98.6232 67.5628 94.9395 48.307 97.6186V95.4418C48.307 93.9767 47.1349 92.8046 45.7116 92.8046H37.7581V90.1674C37.7581 88.7442 36.586 87.5302 35.1628 87.5302H2.59535C1.17209 87.5302 0 88.7023 0 90.1256V148.144C0 149.609 1.17209 150.781 2.63721 150.781C4.10233 150.781 5.27442 149.651 5.27442 148.186V92.7209H32.6512V156.014H27.293V153.377C27.293 151.912 26.0372 150.74 24.6558 150.74C23.1907 150.74 22.0186 151.995 22.0186 153.419V156.056H2.63721C1.17209 156.056 0 157.228 0 158.693C0 160.158 1.17209 161.33 2.63721 161.33H35.2884C36.6698 161.33 37.8837 160.158 37.8837 158.693V155.93H45.8372C47.2186 155.93 48.4326 154.758 48.4326 153.293V151.451C59.4419 153.837 95.3163 161.372 109.047 161.372C116.247 161.372 129.056 154.967 148.144 141.698C161.833 132.195 173.847 122.567 173.93 122.442C174.014 122.442 174.098 122.358 174.14 122.274C179.916 116.498 181.549 109.926 178.493 104.693V104.651ZM43.1163 148.019V150.53H37.9256V98.0372H43.2V148.144L43.1163 148.019ZM147.767 18.7116H66.893C61.5349 18.7116 57.2651 23.0651 57.2651 28.3395V74.093C57.2651 79.4511 61.5349 83.7209 66.893 83.7209H147.767C153.084 83.7209 157.395 79.4511 157.395 74.093V28.3814C157.395 23.0651 153.084 18.7535 147.767 18.7535V18.7116ZM62.4977 28.3395C62.4977 25.9535 64.4651 23.986 66.893 23.986H147.767C150.195 23.986 152.163 25.9535 152.163 28.3814V29.2186H62.4977V28.3814V28.3395ZM152.163 74.093C152.163 76.5209 150.195 78.4883 147.767 78.4883H66.893C64.4651 78.4883 62.4977 76.5209 62.4977 74.093V48.5581H152.163V74.093ZM62.4977 43.3256V34.5349H152.163V43.3256H62.4977ZM95.0233 60.9069H70.4093C68.9442 60.9069 67.7721 62.079 67.7721 63.5442C67.7721 65.0093 68.9023 66.1814 70.3674 66.1814H94.9814C96.4465 66.1814 97.6186 65.0511 97.6186 63.586C97.6186 62.1209 96.4465 60.9488 94.9814 60.9488L95.0233 60.9069ZM144.251 60.9069H137.219C135.753 60.9069 134.581 62.079 134.581 63.5442C134.581 65.0093 135.753 66.1814 137.219 66.1814H144.251C145.716 66.1814 146.888 65.0511 146.888 63.586C146.888 62.1209 145.633 60.9488 144.209 60.9488L144.251 60.9069Z" fill="#FFA633"/>
</g>
<defs>
<clipPath id="clip0_896:1897">
<rect width="180" height="180" fill="white"/>
</clipPath>
</defs>
</svg>
