<svg width="150" height="150" viewBox="0 0 150 150" fill="none" xmlns="http://www.w3.org/2000/svg">
<path fill-rule="evenodd" clip-rule="evenodd" d="M70.3266 0.169227C20.5211 3.87874 -11.7101 52.0133 4.01116 99.2051C7.58403 109.93 17.1313 125.158 20.2825 125.158C22.8898 125.158 22.8909 123.038 20.2851 119.807C2.64441 97.9343 -0.69484 68.4499 11.6626 43.6732C31.9734 2.95034 84.2257 -8.31188 119.85 20.3549C122.576 22.5477 123.717 22.8643 124.669 21.6902C125.928 20.1377 125.119 18.8877 120.639 15.464C106.682 4.7963 87.302 -1.09513 70.3266 0.169227ZM128.423 25.4396C127.215 26.417 127.554 27.5274 129.988 30.5507C158.449 65.9071 147.031 118.106 106.415 138.318C81.6099 150.661 52.0919 147.326 30.1943 129.705C27.469 127.512 26.3273 127.196 25.3756 128.37C24.1183 129.92 24.9298 131.177 29.3857 134.58C63.9912 161.005 113.503 152.576 137.815 116.121C155.168 90.0993 153.873 54.5505 134.656 29.4648C131.229 24.9905 129.977 24.1823 128.423 25.4396ZM45.674 53.0977C39.2981 55.0283 33.8505 56.816 33.5679 57.0698C32.3258 58.1867 33.2623 60.6656 34.9261 60.6656C36.1851 60.6656 59.3351 53.5409 59.9814 52.9543C60.7503 52.2569 60.8345 51.104 60.1847 50.1776C59.4202 49.0871 57.9252 49.3879 45.674 53.0977ZM89.86 50.1776C88.1604 52.6014 88.9279 53.0176 102.638 57.1097C116.747 61.3208 116.977 61.3457 117.053 58.6646C117.101 57.0048 116.627 56.799 104.162 53.0631C91.7045 49.3295 90.6096 49.1085 89.86 50.1776ZM38.4024 68.7439C37.1011 69.6542 37.4894 71.0885 39.5843 73.1119C45.1593 78.4964 53.3131 78.4554 58.914 73.0151C62.5517 69.4815 59.859 66.3465 56.1038 69.7433C51.5557 73.857 46.7318 73.8509 42.2124 69.7251C40.5149 68.1755 39.5643 67.9307 38.4024 68.7439ZM89.99 68.8738C87.3443 71.5165 94.7048 77.0972 100.806 77.0749C107.222 77.0512 114.421 71.7065 111.854 68.8729C110.863 67.7798 109.663 68.0969 107.469 70.0317C103.165 73.8265 98.1885 73.7295 93.9964 69.7691C92.2331 68.1034 91.0304 67.8346 89.99 68.8738ZM55.5864 99.2151C53.9391 100.143 53.785 101.518 55.0482 104.018C60.8703 115.538 80.0685 118.343 90.8185 109.244C95.2445 105.498 96.9344 101.562 94.9625 99.5926C93.9426 98.5739 94.2646 98.5763 86.7617 99.5343C81.2378 100.239 68.7858 100.232 63.283 99.5199C57.2361 98.7378 56.4868 98.7082 55.5864 99.2151ZM64.457 103.905C69.7884 104.481 80.546 104.472 85.873 103.886C90.8294 103.341 90.8326 103.342 88.7964 105.305C81.418 112.416 66.3626 111.899 60.4004 104.331C59.601 103.316 59.299 103.348 64.457 103.905Z" fill="#FF9000"/>
</svg>
