<svg width="212" height="212" viewBox="0 0 212 212" fill="none" xmlns="http://www.w3.org/2000/svg">
<path d="M106 0C47.4591 0 0 47.4591 0 106C0 164.541 47.4591 212 106 212C164.541 212 212 164.541 212 106C212 47.5073 164.493 0 106 0ZM106 204.917C51.3618 204.917 7.08273 160.59 7.08273 106C7.08273 51.3618 51.41 7.08273 106 7.08273C160.638 7.08273 204.917 51.41 204.917 106C204.917 160.59 160.59 204.869 106 204.917ZM106 17.6827C57.1918 17.6827 17.6827 57.1918 17.6827 106C17.6827 154.808 57.1918 194.317 106 194.317C154.808 194.317 194.317 154.808 194.317 106C194.317 57.24 154.808 17.7309 106 17.6827V17.6827ZM106 187.283C61.0945 187.283 24.7173 150.905 24.7173 106C24.7173 61.0945 61.0945 24.7173 106 24.7173C150.905 24.7173 187.283 61.0945 187.283 106C187.283 150.809 150.857 187.235 106 187.283V187.283ZM158.036 53.9636C156.928 52.8555 155.145 52.6145 153.796 53.3855L90.6782 89.3773V89.4736C90.1964 89.8109 89.8591 90.1964 89.4736 90.63C89.4736 90.63 89.4736 90.7264 89.4736 90.7745L53.3373 153.893C52.6145 155.242 52.8555 156.976 53.9636 158.085C55.0718 159.193 56.8545 159.434 58.2036 158.663L121.322 122.671V122.575C121.804 122.237 122.141 121.852 122.526 121.418C122.526 121.418 122.526 121.322 122.526 121.274L158.663 58.1555C159.385 56.8545 159.145 55.0718 158.036 53.9636V53.9636ZM66.0091 145.991L93.2318 98.2909L113.757 118.768L66.0573 146.039L66.0091 145.991ZM118.768 113.709L98.2427 93.28L146.039 65.9609L118.72 113.661L118.768 113.709ZM49.4827 102.483H35.3173C33.39 102.483 31.8 104.025 31.8 106C31.8 107.927 33.39 109.517 35.3173 109.517H49.4827C51.41 109.517 53 107.927 53 106C53 104.073 51.41 102.483 49.4827 102.483ZM176.683 102.483H162.517C160.59 102.483 159 104.025 159 106C159 107.927 160.59 109.517 162.517 109.517H176.683C178.61 109.517 180.2 107.927 180.2 106C180.2 104.073 178.61 102.483 176.683 102.483ZM106 53C107.927 53 109.517 51.41 109.517 49.4827V35.3173C109.517 33.39 107.927 31.8 106 31.8C104.073 31.8 102.483 33.39 102.483 35.3173V49.4827C102.483 51.41 104.025 53 106 53ZM106 159C104.073 159 102.483 160.59 102.483 162.517V176.683C102.483 178.61 104.025 180.2 106 180.2C107.927 180.2 109.517 178.61 109.517 176.683V162.517C109.517 160.59 107.927 159 106 159Z" fill="#FFA633"/>
</svg>
