<svg width="180" height="183" viewBox="0 0 180 183" fill="none" xmlns="http://www.w3.org/2000/svg">
<path d="M109.585 81.0465L132.777 97.9138C133.808 98.7572 135.214 98.7572 136.245 97.9138L159.39 81.0465C164.31 77.5324 167.168 71.8632 167.215 65.7722V29.6949C167.215 28.5235 166.512 27.4459 165.434 26.8837L135.682 13.7646C134.933 13.4367 134.089 13.4367 133.34 13.7646L103.681 26.8837C102.604 27.4459 101.901 28.5235 101.901 29.6949V65.8659C101.901 71.9569 104.806 77.5793 109.585 81.1402V81.0465ZM107.804 31.7564L134.511 19.9025L161.218 31.7096V65.7253C161.218 69.8485 159.25 73.6905 155.97 76.0331L134.511 91.7291L113.052 76.0331C109.772 73.6905 107.898 69.8485 107.804 65.7253V31.7564V31.7564ZM126.78 72.7534C128.092 73.6905 129.872 73.503 130.903 72.2848L154.611 41.83C155.548 40.4244 155.408 38.5502 154.143 37.4726C152.831 36.4418 150.957 36.6292 149.926 37.9411L127.998 66.0533L118.44 58.7441C117.597 58.0882 116.472 57.9476 115.488 58.3693C114.551 58.8378 113.849 59.7749 113.708 60.8057C113.567 61.8833 114.036 62.961 114.879 63.6169L126.733 72.7534H126.78ZM6.9285 161.682H9.88028V173.864C9.88028 178.924 13.8628 183 18.7825 183H36.5869C41.5065 183 45.489 178.924 45.489 173.864V161.682H116.707V173.864C116.707 178.924 120.689 183 125.609 183H143.413C148.333 183 152.315 178.924 152.315 173.864V161.682H155.267C158.547 161.682 161.218 158.964 161.218 155.591V109.908C161.218 105.504 159.343 101.287 156.064 98.4292L166.278 90.9326C174.243 85.1696 178.928 75.7989 179.022 65.7722V21.7298C179.022 20.5116 178.319 19.3871 177.241 18.9185L135.682 0.551905C134.933 0.22393 134.089 0.22393 133.34 0.551905L91.7804 19.0122C90.7028 19.4808 90 20.5116 90 21.7298V33.7711H45.1142C38.789 33.7711 33.2134 37.8474 31.0581 43.9384L13.6286 94.9152C6.36626 95.9928 0.978088 102.412 0.978088 109.908V155.591C0.978088 158.964 3.64875 161.682 6.9285 161.682V161.682ZM39.5386 173.864C39.5386 175.55 38.2267 176.909 36.5869 176.909H18.7825C17.1426 176.909 15.8307 175.503 15.8307 173.864V161.682H39.5386V173.864ZM27.6847 155.591H21.7343V149.5H27.6847V155.591V155.591ZM146.365 173.864C146.365 175.55 145.053 176.909 143.413 176.909H125.609C123.969 176.909 122.657 175.503 122.657 173.864V161.682H146.365V173.864ZM140.461 155.591H134.511V149.5H140.461V155.591ZM95.9504 23.6976L134.511 6.64288L173.072 23.6976V65.8659C173.072 73.9247 169.23 81.4213 162.857 86.1067L134.511 106.816L106.165 86.1067C99.7924 81.4213 95.9504 73.9247 95.9504 65.8659V23.6976V23.6976ZM140.461 112.954C142.101 112.954 143.413 114.359 143.413 115.999V122.09C143.413 123.777 142.101 125.136 140.461 125.136H122.657C121.017 125.136 119.658 123.73 119.658 122.09C119.658 117.03 123.641 112.954 128.561 112.954H140.461V112.954ZM90 52.0441V58.135H69.2438V52.0441H90ZM90 45.9531H84.0496V39.8621H90V45.9531ZM36.7274 45.9531C37.9925 42.2985 41.3191 39.8621 45.1611 39.8621H78.146V45.9531H69.2438C65.9641 45.9531 63.2934 48.6706 63.2934 52.0441V58.135C63.2934 61.5085 65.9641 64.226 69.2438 64.226H90V65.7722C90 75.7989 94.7791 85.1696 102.744 90.9794L107.804 94.7277H20.0007L36.7274 45.9999V45.9531ZM6.9285 109.908C6.9285 104.848 10.9111 100.772 15.8307 100.772H116.097L125.093 107.331C118.393 108.971 113.708 115.062 113.708 122.09C113.708 127.15 117.691 131.227 122.61 131.227H140.415C145.334 131.227 149.317 127.15 149.317 122.09V115.999C149.317 112.251 146.974 108.878 143.601 107.566L150.957 102.131C153.627 103.77 155.267 106.722 155.173 109.908V155.591H146.271V149.5C146.271 146.126 143.694 143.409 140.415 143.409H134.511C131.231 143.409 128.561 146.126 128.561 149.5V155.591H33.6351V149.5C33.6351 146.126 30.9644 143.409 27.6847 143.409H21.7343C18.4545 143.409 15.8307 146.126 15.8307 149.5V155.591H6.9285V109.908ZM54.3912 45.9531H49.331C45.5828 45.9531 42.1624 48.3895 40.8974 52.0441L29.7931 84.5136C29.2308 86.1067 30.0273 87.7934 31.5735 88.4025C33.1197 89.0116 34.8533 88.1682 35.3218 86.6221L46.5667 54.1056C46.9415 52.8874 48.066 52.0909 49.3779 52.0909H54.3912C56.0311 52.0909 57.343 50.6853 57.343 49.0454C57.343 47.3587 56.0311 45.9999 54.3912 45.9999V45.9531ZM21.7343 131.227H39.5386C44.4583 131.227 48.4408 127.15 48.4408 122.09C48.4408 113.657 41.7876 106.863 33.6351 106.863H21.7343C16.8146 106.863 12.8321 110.939 12.8321 115.999V122.09C12.8321 127.15 16.8146 131.227 21.7343 131.227ZM18.7825 115.999C18.7825 114.313 20.0944 112.954 21.7343 112.954H33.6351C38.5547 112.954 42.5373 117.03 42.5373 122.09C42.5373 123.777 41.1317 125.136 39.5386 125.136H21.7343C20.0944 125.136 18.7825 123.73 18.7825 122.09V115.999V115.999ZM60.3417 149.5H101.854C105.134 149.5 107.804 146.782 107.804 143.409V131.227C107.804 127.853 105.134 125.136 101.854 125.136H60.3417C57.0619 125.136 54.3912 127.853 54.3912 131.227V143.409C54.3912 146.782 57.0619 149.5 60.3417 149.5V149.5ZM60.3417 131.227H101.854V143.409H60.3417V131.227V131.227Z" fill="#FFA633"/>
</svg>
