<svg width="182" height="182" viewBox="0 0 182 182" fill="none" xmlns="http://www.w3.org/2000/svg">
<path d="M178.967 95.55H174.373L178.013 86.45H178.967C180.7 86.45 182 85.0633 182 83.4167C182 81.6833 180.7 80.3833 178.967 80.3833H175.933C174.633 80.3833 173.593 81.12 173.117 82.29L167.05 97.4567C166.443 98.9733 167.18 100.707 168.783 101.357C169.087 101.487 169.477 101.573 169.867 101.573H178.967C180.7 101.573 182 100.187 182 98.54C182 96.8067 180.7 95.5067 178.967 95.5067V95.55ZM54.6 119.817C47.8833 119.817 42.4667 125.233 42.4667 131.95C42.4667 138.623 47.8833 144.083 54.6 144.083C61.3167 144.083 66.7333 138.623 66.7333 131.95C66.7333 125.233 61.3167 119.817 54.6 119.817V119.817ZM54.6 138.017C51.2633 138.017 48.5333 135.287 48.5333 131.95C48.5333 128.613 51.2633 125.883 54.6 125.883C57.9367 125.883 60.6667 128.613 60.6667 131.95C60.6667 135.287 57.9367 138.017 54.6 138.017ZM106.167 131.95C106.253 128.05 103.783 124.583 100.1 123.283V74.3167C100.1 73.45 99.7967 72.7133 99.2333 72.15L93.86 66.82L87.9233 28.34C87.6633 26.8667 86.4067 25.74 84.89 25.74H30.3333V16.64C30.3333 14.9933 29.0333 13.6067 27.3 13.6067H3.03333C1.3 13.6067 0 14.9933 0 16.64C0 18.3733 1.3 19.6733 3.03333 19.6733H24.2667V107.64H3.03333C1.3 107.64 0 109.027 0 110.673C0 112.407 1.3 113.707 3.03333 113.707H27.3C29.0333 113.707 30.3333 112.407 30.3333 110.673V31.85H82.3333L87.9667 68.6833C88.0967 69.3767 88.4 69.9833 88.8333 70.4167L94.0333 75.6167V122.85H77.1333C72.15 110.457 58.0667 104.39 45.63 109.33C35.3167 113.403 29.0767 124.063 30.55 135.027H3.03333C1.3 135.027 0 136.327 0 138.06C0 139.707 1.3 141.093 3.03333 141.093H32.0667C37.1367 153.487 51.2633 159.51 63.7 154.527C69.7667 152.013 74.62 147.16 77.1333 141.093H97.6733C102.527 140.92 106.34 136.847 106.167 131.993V131.95ZM54.6 150.15C44.5467 150.15 36.4 142.003 36.4 131.95C36.4 121.897 44.5467 113.75 54.6 113.75C64.6533 113.75 72.8 121.897 72.8 131.95C72.8 142.003 64.6533 150.15 54.6 150.15V150.15ZM100.013 132.643C99.7533 133.857 98.8433 134.81 97.6733 135.027H78.8667V128.96H97.6733C99.4067 129.393 100.403 130.997 100.013 132.687V132.643ZM178.967 134.983H175.673C173.94 125.017 164.623 118.387 154.7 120.077C147.073 121.377 141.093 127.443 139.793 135.027H133.467V125.927C133.467 124.193 132.167 122.893 130.433 122.893H124.367V104.433L155.003 101.617C156.087 101.53 157.04 100.837 157.473 99.8833L168.827 74.3167H178.967C180.7 74.3167 182 73.0167 182 71.2833C182 69.55 180.7 68.25 178.967 68.25H166.833C165.62 68.25 164.537 68.9433 164.06 69.9833L152.663 95.7233L121.03 98.54C119.513 98.67 118.3 99.97 118.3 101.573V123.11C114.573 124.41 112.103 127.963 112.233 131.907C111.973 136.673 115.57 140.703 120.337 141.007H139.837C141.483 150.887 150.843 157.56 160.767 155.913C168.393 154.613 174.373 148.547 175.673 140.963H178.967C180.7 140.963 182 139.663 182 137.93C182 136.197 180.7 134.897 178.967 134.897V134.983ZM127.4 134.983H120.337C119.383 134.983 118.3 133.683 118.3 131.95C118.3 130.217 119.383 128.917 120.337 128.917H127.4V134.983ZM157.733 150.15C151.017 150.15 145.6 144.69 145.6 138.017C145.6 131.3 151.017 125.883 157.733 125.883C164.45 125.883 169.867 131.3 169.867 138.017C169.867 144.69 164.45 150.15 157.733 150.15ZM78.8667 67.9033L75.8333 40.6033C75.66 39.0867 74.36 37.9167 72.8 37.9167H42.4667C40.7333 37.9167 39.4333 39.2167 39.4333 40.95V68.25C39.4333 69.9833 40.7333 71.2833 42.4667 71.2833H75.8333C77.5667 71.2833 78.8667 69.9833 78.8667 68.25C78.8667 68.1633 78.8667 68.0333 78.8667 67.9033ZM45.5 65.2167V43.9833H70.07L72.4533 65.2167H45.5ZM84.9333 101.617C83.2 101.617 81.9 102.917 81.9 104.65V113.75C81.9 115.397 83.2 116.783 84.9333 116.783C86.6667 116.783 87.9667 115.397 87.9667 113.75V104.65C87.9667 102.917 86.6667 101.617 84.9333 101.617ZM135.633 160.117L126.533 151.017C125.363 149.847 123.413 149.847 122.2 151.017C122.113 151.103 122.027 151.233 121.94 151.363L115.787 159.597L108.853 145.73C108.16 144.257 106.34 143.65 104.823 144.43C104.563 144.517 104.39 144.647 104.173 144.863L87.9233 158.73V150.15C87.9233 148.417 86.6233 147.117 84.89 147.117C83.1567 147.117 81.8567 148.417 81.8567 150.15V165.317C81.8567 166.963 83.1567 168.35 84.89 168.35C85.6267 168.35 86.32 168.09 86.8833 167.613L105.083 151.927L112.45 166.66C113.23 168.177 115.05 168.827 116.567 168.047C117 167.83 117.433 167.527 117.693 167.18L124.713 157.777L131.343 164.45C132.643 165.62 134.507 165.577 135.677 164.45C136.803 163.15 136.803 161.33 135.677 160.117H135.633ZM146.033 59.15C145.167 59.0633 144.3 59.3233 143.65 59.8867L125.537 75.4L118.083 57.9367C117.433 56.42 115.613 55.6833 114.097 56.3767C113.23 56.81 112.58 57.5467 112.363 58.4567L106.297 82.7233C105.863 84.3267 106.86 85.9733 108.463 86.4067C110.11 86.84 111.757 85.8 112.147 84.24L116.047 68.64L121.593 81.64C122.243 83.1567 124.02 83.8067 125.58 83.2C125.84 83.0267 126.1 82.8967 126.36 82.68L141.613 69.5933L139.577 86.06C139.403 87.7933 140.573 89.2233 142.263 89.44C142.35 89.44 142.48 89.44 142.61 89.44C144.17 89.44 145.47 88.3567 145.643 86.84L148.677 62.5733C148.893 60.84 147.723 59.3667 146.077 59.1067L146.033 59.15Z" fill="#FFA633"/>
</svg>
