<svg width="186" height="112" viewBox="0 0 186 112" fill="none" xmlns="http://www.w3.org/2000/svg">
<path d="M157.496 4.96715L92.9133 70.9644L28.3303 4.96715C26.7893 3.39237 24.9598 2.1432 22.9463 1.29093C20.9329 0.438667 18.7749 1.6593e-08 16.5955 0C14.4162 -1.6593e-08 12.2581 0.438667 10.2447 1.29093C8.23122 2.1432 6.40175 3.39237 4.86071 4.96715C3.31968 6.54193 2.09726 8.41147 1.26326 10.469C0.429259 12.5266 -1.62374e-08 14.7318 0 16.9589C1.62374e-08 19.186 0.429259 21.3913 1.26326 23.4488C2.09726 25.5064 3.31968 27.3759 4.86071 28.9507L81.2617 107.025C87.7533 113.658 98.2397 113.658 104.731 107.025L181.132 28.9507C182.675 27.3771 183.9 25.5079 184.735 23.4502C185.57 21.3925 186 19.1866 186 16.9589C186 14.7312 185.57 12.5253 184.735 10.4676C183.9 8.40994 182.675 6.54077 181.132 4.96715C174.641 -1.49649 163.988 -1.66659 157.496 4.96715Z" fill="#629FD1"/>
</svg>
