<svg width="199" height="199" viewBox="0 0 199 199" fill="none" xmlns="http://www.w3.org/2000/svg">
<path d="M163.18 15.92H87.8665C81.8845 7.95996 72.0818 0.987 60.9935 0.987C42.777 0.987 28.0112 15.2195 28.0112 33.4359C28.0112 51.6564 42.777 65.4232 60.9935 65.4232C74.8479 65.4232 86.7003 55.72 91.5917 43.78H102.557L110.505 35.8279L118.449 43.78H123.404L131.348 35.8279L139.296 43.78H144.247L152.195 35.8279L160.143 43.78H163.18V44.8983L162.487 45.0615L178.169 29.6908L163.18 15.92ZM50.3191 42.2278C47.7853 42.2262 45.3558 41.2181 43.5652 39.4252C41.7746 37.6324 40.7695 35.2017 40.7711 32.6678C40.7727 30.1339 41.7808 27.7045 43.5736 25.9139C45.3665 24.1233 47.7972 23.1182 50.3311 23.1198C51.5857 23.1206 52.8279 23.3685 53.9868 23.8493C55.1456 24.3302 56.1984 25.0346 57.085 25.9223C57.9716 26.81 58.6747 27.8637 59.1541 29.0231C59.6335 30.1826 59.8799 31.4251 59.8791 32.6797C59.8783 33.9344 59.6304 35.1766 59.1496 36.3354C58.6687 37.4943 57.9643 38.5471 57.0766 39.4337C56.1889 40.3203 55.1352 41.0234 53.9757 41.5028C52.8163 41.9822 51.5738 42.2285 50.3191 42.2278V42.2278ZM171.14 119.4H168.939L144.486 75.1225C143.431 73.2081 140.773 71.64 138.584 71.64H64.3964C62.2074 71.64 59.5488 73.2081 58.4941 75.1225L34.037 119.4H31.84C27.462 119.4 23.88 122.982 23.88 127.36V167.16C23.88 171.538 27.462 175.12 31.84 175.12H39.8V187.06C39.8 193.627 45.173 199 51.74 199H55.72C62.287 199 67.66 193.627 67.66 187.06V175.12H135.32V187.06C135.32 193.627 140.693 199 147.26 199H151.24C157.807 199 163.18 193.627 163.18 187.06V175.12H171.14C175.518 175.12 179.1 171.538 179.1 167.16V127.36C179.1 122.982 175.518 119.4 171.14 119.4ZM45.77 151.24C43.1311 151.24 40.6003 150.192 38.7343 148.326C36.8683 146.46 35.82 143.929 35.82 141.29C35.82 138.651 36.8683 136.12 38.7343 134.254C40.6003 132.388 43.1311 131.34 45.77 131.34C48.4089 131.34 50.9397 132.388 52.8057 134.254C54.6717 136.12 55.72 138.651 55.72 141.29C55.72 143.929 54.6717 146.46 52.8057 148.326C50.9397 150.192 48.4089 151.24 45.77 151.24V151.24ZM53.73 119.4L69.8609 87.1421C70.84 85.1799 73.431 83.58 75.62 83.58H127.36C129.549 83.58 132.14 85.1799 133.119 87.1421L149.25 119.4H53.73ZM157.21 151.24C154.571 151.24 152.04 150.192 150.174 148.326C148.308 146.46 147.26 143.929 147.26 141.29C147.26 138.651 148.308 136.12 150.174 134.254C152.04 132.388 154.571 131.34 157.21 131.34C159.849 131.34 162.38 132.388 164.246 134.254C166.112 136.12 167.16 138.651 167.16 141.29C167.16 143.929 166.112 146.46 164.246 148.326C162.38 150.192 159.849 151.24 157.21 151.24Z" fill="#629FD1"/>
</svg>
