<svg width="223" height="223" viewBox="0 0 223 223" fill="none" xmlns="http://www.w3.org/2000/svg">
<path d="M157.958 46.4582C165.67 46.4582 171.896 40.2328 171.896 32.5207C171.896 23.2291 157.958 7.43323 157.958 7.43323C157.958 7.43323 144.021 23.2291 144.021 32.5207C144.021 40.2328 150.246 46.4582 157.958 46.4582ZM111.5 46.4582C119.212 46.4582 125.438 40.2328 125.438 32.5207C125.438 23.2291 111.5 7.43323 111.5 7.43323C111.5 7.43323 97.5625 23.2291 97.5625 32.5207C97.5625 40.2328 103.788 46.4582 111.5 46.4582ZM65.0417 46.4582C72.7538 46.4582 78.9792 40.2328 78.9792 32.5207C78.9792 23.2291 65.0417 7.43323 65.0417 7.43323C65.0417 7.43323 51.1042 23.2291 51.1042 32.5207C51.1042 40.2328 57.3296 46.4582 65.0417 46.4582ZM175.798 74.4261C173.94 68.9441 168.737 65.0416 162.604 65.0416H60.3958C54.2633 65.0416 49.1529 68.9441 47.2017 74.4261L27.875 130.083V204.417C27.875 209.527 32.0563 213.708 37.1667 213.708H46.4583C51.5688 213.708 55.75 209.527 55.75 204.417V195.125H167.25V204.417C167.25 209.527 171.431 213.708 176.542 213.708H185.833C190.944 213.708 195.125 209.527 195.125 204.417V130.083L175.798 74.4261ZM60.3958 167.25C52.6838 167.25 46.4583 161.024 46.4583 153.312C46.4583 145.6 52.6838 139.375 60.3958 139.375C68.1079 139.375 74.3333 145.6 74.3333 153.312C74.3333 161.024 68.1079 167.25 60.3958 167.25ZM162.604 167.25C154.892 167.25 148.667 161.024 148.667 153.312C148.667 145.6 154.892 139.375 162.604 139.375C170.316 139.375 176.542 145.6 176.542 153.312C176.542 161.024 170.316 167.25 162.604 167.25ZM46.4583 120.792L60.3958 78.9791H162.604L176.542 120.792H46.4583Z" fill="#629FD1"/>
</svg>
