<svg width="183" height="183" viewBox="0 0 183 183" fill="none" xmlns="http://www.w3.org/2000/svg">
<path d="M78.4484 28.1417L69.54 40.26H48.7365C51.3022 47.58 59.7019 54.4827 71.4322 52.1916C74.9092 51.9573 86.6395 50.0944 91.5 51.24C97.9708 52.7918 95.2734 52.7991 106.876 62.1102L164.7 109.8C168.243 112.929 172.774 111.648 175.911 108.113C179.047 104.57 179.223 98.2893 175.68 95.16L102.48 36.6C97.8976 32.9217 96.7411 27.827 95.16 21.96C92.0856 11.8767 80.7798 3.78809 69.6827 3.78809C60.7413 3.78809 51.1192 11.5217 47.58 18.3H69.54L78.4484 28.1417ZM128.664 117.12L106.037 77.8482C105.144 76.2195 102.886 73.2 101.031 73.2H38.0493C36.1937 73.2 33.9355 76.2195 33.0388 77.8482L10.98 117.12H10.4163C6.70143 117.12 3.65997 118.471 3.65997 122.189V155.971C3.65997 159.689 6.70143 161.04 10.4163 161.04H18.3V172.862C18.3 178.44 21.7331 183 27.3072 183H30.6854C36.2633 183 40.26 178.44 40.26 172.862V161.04H98.82V172.862C98.82 178.436 102.817 183 108.391 183H111.769C117.347 183 120.78 178.44 120.78 172.862V161.04H128.664C132.379 161.04 135.42 159.689 135.42 155.971V122.189C135.42 118.471 132.379 117.12 128.664 117.12ZM22.2418 142.458C21.1179 142.482 20.0007 142.28 18.9556 141.866C17.9104 141.453 16.9584 140.834 16.1553 140.048C15.3522 139.261 14.7142 138.322 14.2786 137.286C13.8431 136.25 13.6187 135.137 13.6187 134.013C13.6187 132.889 13.8431 131.776 14.2786 130.74C14.7142 129.703 15.3522 128.764 16.1553 127.978C16.9584 127.191 17.9104 126.573 18.9556 126.159C20.0007 125.745 21.1179 125.544 22.2418 125.567C24.4512 125.613 26.5546 126.523 28.1009 128.102C29.6472 129.681 30.5132 131.803 30.5132 134.013C30.5132 136.223 29.6472 138.345 28.1009 139.923C26.5546 141.502 24.4512 142.412 22.2418 142.458ZM28.9982 117.12L42.6902 88.4695C43.521 86.8079 45.7243 84.18 47.58 84.18H91.5C93.3556 84.18 95.5553 86.8079 96.3897 88.4695L110.082 117.12H28.9982ZM116.838 142.458C114.598 142.458 112.449 141.568 110.865 139.984C109.281 138.4 108.391 136.251 108.391 134.011C108.391 131.771 109.281 129.622 110.865 128.038C112.449 126.454 114.598 125.564 116.838 125.564C119.078 125.564 121.227 126.454 122.811 128.038C124.395 129.622 125.285 131.771 125.285 134.011C125.285 136.251 124.395 138.4 122.811 139.984C121.227 141.568 119.078 142.458 116.838 142.458Z" fill="#629FD1"/>
</svg>
