<svg width="185" height="185" viewBox="0 0 185 185" fill="none" xmlns="http://www.w3.org/2000/svg">
<path d="M176.797 43.9671C174.251 41.9617 167.425 40.3522 162.315 39.1534L155.4 38.2284V21.5118L158.941 21.4563C162.26 23.1398 167.04 25.9 167.288 29.6H180.623C180.375 22.2 174.755 17.5306 169.752 13.8232C166.433 11.3627 162.8 10.0492 155.4 9.2537V0H148V8.9688C140.6 9.6792 138.21 11.5218 134.869 14.5299C130.499 18.463 128.553 23.3988 128.553 29.341C128.553 35.853 130.414 40.6371 134.887 43.7007C137.388 45.436 140.6 47.0492 148 48.544V66.6555C144.3 66.0006 144.293 66.1671 142.986 64.6168C141.728 63.1146 141.384 59.2 140.955 59.2H127.724C127.724 66.6 129.726 70.1446 134.735 74.0925C138.347 76.9378 140.6 77.441 148 78.1884V85.1H155.4V78.3068C162.8 77.5927 169.086 75.7094 172.701 72.6236C177.393 68.6165 181.23 63.5808 181.23 57.5202C181.226 51.6076 180.752 47.0936 176.797 43.9671V43.9671ZM144.367 33.6589C142.213 32.486 141.384 30.71 141.384 28.3383C141.384 25.7557 142.098 23.7355 144.281 22.2925C145.432 21.534 144.3 20.9827 148 20.6164V35.1944C144.3 34.632 145.181 34.1214 144.367 33.6589V33.6589ZM160.436 66.2929C159.814 66.5075 155.4 66.6777 155.4 66.8294V51.4115C162.8 52.0479 162.23 52.7324 163.459 53.4761C165.386 54.6749 166.356 56.3843 166.356 58.571C166.356 62.3302 164.376 64.9091 160.436 66.2929ZM142.524 111H140.478L117.745 69.8375C116.765 68.0578 114.293 66.6 112.258 66.6H43.2863C41.2513 66.6 38.7797 68.0578 37.7992 69.8375L15.0664 111H13.024C8.95025 111 3.69995 114.33 3.69995 118.4V155.4C3.69995 159.47 8.95025 162.8 13.024 162.8H18.5V173.9C18.5 180.005 25.419 185 31.524 185H35.224C41.329 185 44.4 180.005 44.4 173.9V162.8H107.3V173.9C107.3 180.005 114.215 185 120.324 185H124.024C130.129 185 133.2 180.005 133.2 173.9V162.8H142.524C146.594 162.8 148 159.47 148 155.4V118.4C148 114.33 146.59 111 142.524 111ZM25.974 140.6C23.5207 140.6 21.1679 139.625 19.4332 137.891C17.6985 136.156 16.724 133.803 16.724 131.35C16.724 128.897 17.6985 126.544 19.4332 124.809C21.1679 123.075 23.5207 122.1 25.974 122.1C28.4272 122.1 30.78 123.075 32.5147 124.809C34.2494 126.544 35.224 128.897 35.224 131.35C35.224 133.803 34.2494 136.156 32.5147 137.891C30.78 139.625 28.4272 140.6 25.974 140.6V140.6ZM33.374 111L48.3701 81.0115C49.2766 79.1874 51.689 77.7 53.724 77.7H101.824C103.859 77.7 106.268 79.1874 107.178 81.0115L122.174 111H33.374ZM129.574 140.6C127.121 140.6 124.768 139.625 123.033 137.891C121.298 136.156 120.324 133.803 120.324 131.35C120.324 128.897 121.298 126.544 123.033 124.809C124.768 123.075 127.121 122.1 129.574 122.1C132.027 122.1 134.38 123.075 136.115 124.809C137.849 126.544 138.824 128.897 138.824 131.35C138.824 133.803 137.849 136.156 136.115 137.891C134.38 139.625 132.027 140.6 129.574 140.6V140.6Z" fill="#629FD1"/>
</svg>
