<svg width="335" height="240" viewBox="0 0 335 240" fill="none" xmlns="http://www.w3.org/2000/svg">
<path d="M257.83 83.9905L254.624 82.8386L227.465 31.7724C222.364 22.1757 214.758 14.15 205.46 8.55357C196.162 2.95717 185.522 0.00057978 174.679 4.99874e-08H106.291C93.7324 -0.000513928 81.4924 3.96259 71.3052 11.3277C61.1181 18.6928 53.5006 29.0863 49.5321 41.0354L36.5868 79.983C25.7413 84.5674 16.4851 92.2584 9.97721 102.093C3.46928 111.928 -0.00128392 123.469 3.56304e-07 135.273V161.982C3.56304e-07 179.02 10.1218 193.658 24.6464 200.257C26.5274 211.065 32.0438 220.901 40.2768 228.125C48.5099 235.35 58.9626 239.527 69.8938 239.962C80.825 240.397 91.5748 237.063 100.353 230.515C109.131 223.968 115.407 214.601 118.135 203.977H216.865C219.593 214.601 225.869 223.968 234.647 230.515C243.425 237.063 254.175 240.397 265.106 239.962C276.037 239.527 286.49 235.35 294.723 228.125C302.956 220.901 308.473 211.065 310.354 200.257C317.699 196.932 323.931 191.552 328.303 184.763C332.674 177.974 335 170.064 335 161.982V153.847C334.998 141.462 331.175 129.382 324.054 119.263C316.934 109.145 306.865 101.484 295.231 97.333L259.099 84.4465V83.9905H257.83ZM106.291 23.9973H131.607V83.9905H60.4675L72.2164 48.6185C74.5985 41.446 79.1719 35.2076 85.288 30.7883C91.4042 26.3689 98.7524 23.9929 106.291 23.9973ZM155.536 23.9973H174.679C181.186 23.995 187.571 25.7667 193.151 29.1228C198.732 32.479 203.297 37.2935 206.36 43.0511L228.135 83.9905H155.536V23.9973ZM253.715 107.988L287.215 119.938C294.195 122.43 300.235 127.027 304.506 133.098C308.777 139.169 311.071 146.416 311.071 153.847V161.982C311.071 166.181 309.636 170.045 307.243 173.116C303.323 163.89 296.62 156.127 288.075 150.917C279.531 145.708 269.573 143.313 259.602 144.071C249.63 144.828 240.146 148.699 232.48 155.139C224.815 161.58 219.354 170.267 216.865 179.98H118.135C115.646 170.267 110.185 161.58 102.52 155.139C94.8544 148.699 85.3699 144.828 75.3984 144.071C65.427 143.313 55.4695 145.708 46.9246 150.917C38.3797 156.127 31.6767 163.89 27.7571 173.116C25.2668 169.943 23.9178 166.02 23.9286 161.982V135.273C23.9286 124.474 28.7143 114.635 36.3714 107.988H253.715ZM47.8571 191.978C47.8571 185.614 50.3782 179.51 54.8657 175.01C59.3531 170.509 65.4395 167.981 71.7857 167.981C78.132 167.981 84.2183 170.509 88.7058 175.01C93.1932 179.51 95.7143 185.614 95.7143 191.978C95.7143 198.343 93.1932 204.447 88.7058 208.947C84.2183 213.447 78.132 215.976 71.7857 215.976C65.4395 215.976 59.3531 213.447 54.8657 208.947C50.3782 204.447 47.8571 198.343 47.8571 191.978ZM263.214 167.981C269.561 167.981 275.647 170.509 280.134 175.01C284.622 179.51 287.143 185.614 287.143 191.978C287.143 198.343 284.622 204.447 280.134 208.947C275.647 213.447 269.561 215.976 263.214 215.976C256.868 215.976 250.782 213.447 246.294 208.947C241.807 204.447 239.286 198.343 239.286 191.978C239.286 185.614 241.807 179.51 246.294 175.01C250.782 170.509 256.868 167.981 263.214 167.981Z" fill="#629FD1"/>
</svg>
