<svg width="351" height="263" viewBox="0 0 351 263" fill="none" xmlns="http://www.w3.org/2000/svg">
<path d="M22.0208 65.5625V66.0625H22.5208H328.479H328.979V65.5625V43.7083C328.979 37.7796 326.624 32.0938 322.432 27.9015C318.24 23.7093 312.554 21.3542 306.625 21.3542H44.375C38.4463 21.3542 32.7604 23.7093 28.5682 27.9015C24.376 32.0938 22.0208 37.7796 22.0208 43.7083V65.5625ZM328.979 109.271V108.771H328.479H22.5208H22.0208V109.271V218.542C22.0208 224.47 24.376 230.156 28.5682 234.348C32.7604 238.541 38.4463 240.896 44.375 240.896H306.625C312.554 240.896 318.24 238.541 322.432 234.348C326.624 230.156 328.979 224.47 328.979 218.542V109.271ZM1.16666 43.7083C1.16666 32.2488 5.71895 21.2586 13.8221 13.1554C21.9252 5.05229 32.9154 0.5 44.375 0.5H306.625C318.085 0.5 329.075 5.05229 337.178 13.1554C345.281 21.2586 349.833 32.2488 349.833 43.7083V218.542C349.833 230.001 345.281 240.991 337.178 249.095C329.075 257.198 318.085 261.75 306.625 261.75H44.375C32.9154 261.75 21.9252 257.198 13.8221 249.095C5.71895 240.991 1.16666 230.001 1.16666 218.542V43.7083Z" fill="#629FD1" stroke="#629FD1"/>
<path d="M44.875 174.833C44.875 169.17 47.1248 163.738 51.1295 159.734C55.1342 155.729 60.5657 153.479 66.2292 153.479H88.0833C93.7468 153.479 99.1783 155.729 103.183 159.734C107.188 163.738 109.438 169.17 109.438 174.833V196.688C109.438 202.351 107.188 207.782 103.183 211.787C99.1783 215.792 93.7468 218.042 88.0833 218.042H66.2292C60.5657 218.042 55.1342 215.792 51.1295 211.787C47.1248 207.782 44.875 202.351 44.875 196.688V174.833Z" fill="#629FD1" stroke="#629FD1"/>
</svg>
