<svg width="317" height="317" viewBox="0 0 317 317" fill="none" xmlns="http://www.w3.org/2000/svg">
<path d="M170.388 138.688C162.463 136.706 154.538 132.744 148.594 126.8C142.65 124.819 140.669 118.875 140.669 114.913C140.669 110.95 142.65 105.006 146.612 103.025C152.556 99.0625 158.5 95.1 164.444 97.0813C176.331 97.0813 186.237 103.025 192.181 110.95L210.013 87.175C204.069 81.2313 198.125 77.2687 192.181 73.3062C186.237 69.3437 178.313 67.3625 170.388 67.3625V39.625H146.612V67.3625C136.706 69.3438 126.8 75.2875 118.875 83.2125C110.95 93.1187 105.006 105.006 106.988 116.894C106.988 128.781 110.95 140.669 118.875 148.594C128.781 158.5 142.65 164.444 154.538 170.388C160.481 172.369 168.406 176.331 174.35 180.294C178.313 184.256 180.294 190.2 180.294 196.144C180.294 202.087 178.313 208.031 174.35 213.975C168.406 219.919 160.481 221.9 154.538 221.9C146.613 221.9 136.706 219.919 130.763 213.975C124.819 210.013 118.875 204.069 114.913 198.125L95.1 219.919C101.044 227.844 106.988 233.788 114.913 239.731C124.819 245.675 136.706 251.619 148.594 251.619V277.375H170.388V247.656C182.275 245.675 192.181 239.731 200.106 231.806C210.013 221.9 215.956 206.05 215.956 192.181C215.956 180.294 211.994 166.425 202.087 158.5C192.181 148.594 182.275 142.65 170.388 138.688ZM158.5 0C71.325 0 0 71.325 0 158.5C0 245.675 71.325 317 158.5 317C245.675 317 317 245.675 317 158.5C317 71.325 245.675 0 158.5 0ZM158.5 295.206C83.2125 295.206 21.7937 233.787 21.7937 158.5C21.7937 83.2125 83.2125 21.7937 158.5 21.7937C233.787 21.7937 295.206 83.2125 295.206 158.5C295.206 233.787 233.787 295.206 158.5 295.206Z" fill="#629FD1"/>
</svg>
