<svg width="285" height="285" viewBox="0 0 285 285" fill="none" xmlns="http://www.w3.org/2000/svg">
<path d="M114.038 128.266C115.91 128.266 117.764 127.897 119.493 127.181C121.223 126.464 122.794 125.415 124.118 124.091C125.442 122.767 126.492 121.196 127.208 119.467C127.924 117.737 128.293 115.884 128.293 114.012C128.293 112.14 127.924 110.286 127.208 108.557C126.492 106.828 125.442 105.256 124.118 103.933C122.794 102.609 121.223 101.559 119.493 100.843C117.764 100.127 115.91 99.7579 114.038 99.7579C110.258 99.7579 106.632 101.26 103.959 103.933C101.285 106.606 99.7835 110.231 99.7835 114.012C99.7835 117.792 101.285 121.418 103.959 124.091C106.632 126.764 110.258 128.266 114.038 128.266Z" fill="#629FD1"/>
<path fill-rule="evenodd" clip-rule="evenodd" d="M42.8316 190.063V285H178.309V233.447H212.298C214.419 233.447 216.446 233.027 218.291 232.275L199.448 217.613H162.475V269.167H58.658V183.682L54.2244 179.083C41.2403 165.585 15.8342 134.037 15.8342 94.8021C15.8342 81.8979 20.7033 62.13 35.3579 45.7979C48.2865 31.3817 69.9794 18.3667 106.113 16.1658V71.9783C99.8654 73.1623 93.9603 75.725 88.8283 79.4798C83.6963 83.2346 79.4666 88.0868 76.4473 93.6831C73.428 99.2793 71.6953 105.479 71.3752 111.829C71.0552 118.18 72.1559 124.522 74.5972 130.393C77.0386 136.265 80.759 141.517 85.4875 145.769C90.216 150.021 95.8335 153.164 101.931 154.97C108.028 156.776 114.451 157.199 120.733 156.209C127.014 155.219 132.995 152.839 138.241 149.245L249.635 235.719C248.949 239.677 249.62 243.75 251.541 247.278C253.462 250.806 256.518 253.582 260.215 255.154C263.912 256.726 268.032 257.002 271.905 255.938C275.779 254.874 279.179 252.532 281.554 249.292C283.929 246.052 285.139 242.105 284.987 238.091C284.836 234.077 283.332 230.232 280.72 227.18C278.108 224.128 274.541 222.048 270.599 221.279C266.656 220.51 262.569 221.095 259.001 222.941L149.475 137.908C153.439 132.035 155.881 125.269 156.581 118.218C157.282 111.168 156.22 104.053 153.491 97.5145C150.762 90.9758 146.45 85.2177 140.944 80.7577C135.438 76.2976 128.911 73.2754 121.947 71.9625V15.8887C142.081 16.2608 156.031 18.9604 166.584 22.9188C177.763 27.1146 186.052 33.0442 194.405 40.7867L195.529 41.8317C203.715 49.4158 206.154 51.68 207.539 55.3692L241.053 144.59H212.298V167.453L228.132 179.764V160.423H241.053C243.611 160.427 246.133 159.81 248.401 158.625C250.669 157.439 252.615 155.722 254.073 153.619C255.531 151.517 256.458 149.092 256.773 146.552C257.088 144.013 256.782 141.435 255.881 139.04L222.36 49.7958C219.597 42.4333 214.253 37.525 207.524 31.35C206.738 30.6288 205.954 29.9058 205.172 29.1808C186.448 11.8117 165.143 0 117.158 0C23.7989 0 0 62.3438 0 94.8021C0 140.458 29.1588 175.877 42.8316 190.063ZM114.03 140.917C117.565 140.917 121.066 140.221 124.332 138.869C127.598 137.517 130.566 135.535 133.066 133.036C135.565 130.537 137.549 127.57 138.902 124.304C140.255 121.039 140.952 117.539 140.952 114.004C140.953 110.469 140.257 106.969 138.905 103.703C137.553 100.437 135.57 97.4697 133.071 94.9698C130.572 92.47 127.605 90.4869 124.339 89.1338C121.073 87.7806 117.573 87.0839 114.038 87.0833C106.899 87.0833 100.052 89.9192 95.0042 94.967C89.956 100.015 87.12 106.861 87.12 114C87.12 121.139 89.956 127.985 95.0042 133.033C100.052 138.081 106.891 140.917 114.03 140.917Z" fill="#629FD1"/>
</svg>
